{"title":"Van Helsing 2004 HDDVDRip H264 AAC - IceBane","uid":5269569,"size":2457085183,"categoryP":"video","categoryS":"movies","magnet":"?xt=urn:btih:21074dd18f0fe0196be0c0c0f9f1dbf665ef595c&amp;dn=Van+Helsing+2004+HDDVDRip+H264+AAC+-+IceBane&amp;tr=udp%3A%2F%2Ftracker.openbittorrent.com%3A80&amp;tr=udp%3A%2F%2Fopen.demonii.com%3A1337&amp;tr=udp%3A%2F%2Ftracker.coppersurfer.tk%3A6969&amp;tr=udp%3A%2F%2Fexodus.desync.com%3A6969","seeders":0,"leechers":1,"uploader":"IceBane","files":-1,"time":1263000297,"description":"Van Helsing\n\n\n\nPlot Summary:\n\nHugh Jackman plays the mysterious Gabriel Van Helsing and Kate Beckinsale plays Princess Anna Valerious, the last member of the royal family in Transylvania. The movie is set near the end of the 19th century with Van Helsing working for a secret holy organization that has been defeating evil creatures all over the world for centuries. Van Helsing has been ordered to capture or kill Mr. Hyde. He finds Mr. Hyde and the battle is on. His next mission is to go to Transylvania and kill the vampire, Count Dracula (Richard Roxburgh). Van Helsing cannot remember his past, but all roads lead to Transylvania. When he first arrives in town, the town's people want to kill him, until Dracula's three wives come to town for lunch. Van Helsing joins forces with Anna to go after Dracula. Anna's family has tried everything to kill Dracula for over 400 years. Anna's entire family tree will go to hell if Dracula is not killed before she dies. While Van Helsing is battling Dracula, he discovers his secret past.\n\n\nCast:\n\n\nHugh Jackman as Van Helsing\n\nKate Beckinsale as Anna Valerious\n\nRichard Roxburgh as Count Vladislaus Dracula\n\nDavid Wenham as Carl\n\nShuler Hensley as Frankenstein's Monster\n\nWill Kemp as Velkan\n\nKevin J. O'Connor as Igor\n\nSamuel West as Dr. Victor Frankenstein\n\nRobbie Coltrane as the Voice of Mr. Hyde\n\n\n\nFile Info:\n\nGeneral:\n\nComplete name                    : Van Helsing.mp4\nFormat                           : MPEG-4\nFormat profile                   : Base Media\nCodec ID                         : isom\nFile size                        : 2.18 GiB\nDuration                         : 2h 11mn\nOverall bit rate                 : 2 376 Kbps\nLanguage                         : English\nSubtitles                        : 3 = English, French, Spanish\nExtras                           : Bloopers\nSample Video                     : No\n\n\nVideo:\n\nFormat                           : AVC\nFormat/Info                      : Advanced Video Codec\nFormat profile                   : &lt;a class=&quot;__cf_email__&quot; href=&quot;/cdn-cgi/l/email-protection&quot; data-cfemail=&quot;276f4e404f676b140915&quot;&gt;[email&amp;#160;protected]&lt;/a&gt;&lt;script cf-hash='f9e31' type=&quot;text/javascript&quot;&gt;\n/* &lt;![CDATA[ */!function(){try{var t=&quot;currentScript&quot;in document?document.currentScript:function(){for(var t=document.getElementsByTagName(&quot;script&quot;),e=t.length;e--;)if(t[e].getAttribute(&quot;cf-hash&quot;))return t[e]}();if(t&amp;&amp;t.previousSibling){var e,r,n,i,c=t.previousSibling,a=c.getAttribute(&quot;data-cfemail&quot;);if(a){for(e=&quot;&quot;,r=parseInt(a.substr(0,2),16),n=2;a.length-n;n+=2)i=parseInt(a.substr(n,2),16)^r,e+=String.fromCharCode(i);e=document.createTextNode(e),c.parentNode.replaceChild(e,c)}}}catch(u){}}();/* ]]&gt; */&lt;/script&gt;\nFormat settings, CABAC           : Yes\nFormat settings, ReFrames        : 2 frames\nCodec ID                         : avc1\nCodec ID/Info                    : Advanced Video Coding\nDuration                         : 2h 11mn\nBit rate mode                    : Variable\nBit rate                         : 1 856 Kbps\nMaximum bit rate                 : 5 414 Kbps\nWidth                            : 1 360 pixels\nHeight                           : 736 pixels\nDisplay aspect ratio             : 1.850\nFrame rate mode                  : Constant\nFrame rate                       : 23.976 fps\nResolution                       : 24 bits\nColorimetry                      : 4:2:0\nScan type                        : Progressive\nBits/(Pixel*Frame)               : 0.077\nStream size                      : 1.71 GiB (78%)\n\n\nAudio:\n\nFormat                           : AAC\nFormat/Info                      : Advanced Audio Codec\nFormat version                   : Version 4\nFormat profile                   : LC\nFormat settings, SBR             : No\nCodec ID                         : 40\nDuration                         : 2h 11mn\nBit rate mode                    : Variable\nBit rate                         : 517 Kbps\nMaximum bit rate                 : 621 Kbps\nChannel(s)                       : 6 channels\nChannel positions                : Front: L C R, Rear: L R, LFE\nSampling rate                    : 48.0 KHz\nResolution                       : 16 bits\nStream size                      : 486 MiB (22%)\n\n\n\n\nThis Is My First Encode.\n\nHope you all like it.\n\nIceBane","torrent":{"xt":"urn:btih:21074dd18f0fe0196be0c0c0f9f1dbf665ef595c","amp;dn":"Van+Helsing+2004+HDDVDRip+H264+AAC+-+IceBane","amp;tr":["udp%3A%2F%2Ftracker.openbittorrent.com%3A80","udp%3A%2F%2Fopen.demonii.com%3A1337","udp%3A%2F%2Ftracker.coppersurfer.tk%3A6969","udp%3A%2F%2Fexodus.desync.com%3A6969"],"infoHash":"21074dd18f0fe0196be0c0c0f9f1dbf665ef595c","infoHashBuffer":{"type":"Buffer","data":[33,7,77,209,143,15,224,25,107,224,192,192,249,241,219,246,101,239,89,92]},"announce":[],"urlList":[]}}